<svg id="visual" viewBox="0 0 900 600" width="900" height="600" xmlns="http://www.w3.org/2000/svg" xmlns:xlink="http://www.w3.org/1999/xlink" version="1.1"><rect x="0" y="0" width="900" height="600" fill="#9a3434"></rect><path d="M0 444L21.5 438.8C43 433.7 86 423.3 128.8 423.7C171.7 424 214.3 435 257.2 430.3C300 425.7 343 405.3 385.8 407.3C428.7 409.3 471.3 433.7 514.2 440.7C557 447.7 600 437.3 642.8 424.7C685.7 412 728.3 397 771.2 392.3C814 387.7 857 393.3 878.5 396.2L900 399L900 601L878.5 601C857 601 814 601 771.2 601C728.3 601 685.7 601 642.8 601C600 601 557 601 514.2 601C471.3 601 428.7 601 385.8 601C343 601 300 601 257.2 601C214.3 601 171.7 601 128.8 601C86 601 43 601 21.5 601L0 601Z" fill="#417505"></path><path d="M0 435L21.5 445.2C43 455.3 86 475.7 128.8 478C171.7 480.3 214.3 464.7 257.2 454C300 443.3 343 437.7 385.8 447.8C428.7 458 471.3 484 514.2 487.3C557 490.7 600 471.3 642.8 467.5C685.7 463.7 728.3 475.3 771.2 478C814 480.7 857 474.3 878.5 471.2L900 468L900 601L878.5 601C857 601 814 601 771.2 601C728.3 601 685.7 601 642.8 601C600 601 557 601 514.2 601C471.3 601 428.7 601 385.8 601C343 601 300 601 257.2 601C214.3 601 171.7 601 128.8 601C86 601 43 601 21.5 601L0 601Z" fill="#426b02"></path><path d="M0 537L21.5 539.5C43 542 86 547 128.8 541.3C171.7 535.7 214.3 519.3 257.2 518.5C300 517.7 343 532.3 385.8 538C428.7 543.7 471.3 540.3 514.2 539.3C557 538.3 600 539.7 642.8 537.5C685.7 535.3 728.3 529.7 771.2 521.5C814 513.3 857 502.7 878.5 497.3L900 492L900 601L878.5 601C857 601 814 601 771.2 601C728.3 601 685.7 601 642.8 601C600 601 557 601 514.2 601C471.3 601 428.7 601 385.8 601C343 601 300 601 257.2 601C214.3 601 171.7 601 128.8 601C86 601 43 601 21.5 601L0 601Z" fill="#416100"></path></svg>