<svg id="visual" viewBox="0 0 960 540" width="960" height="540" xmlns="http://www.w3.org/2000/svg" xmlns:xlink="http://www.w3.org/1999/xlink" version="1.1"><rect x="0" y="0" width="960" height="540" fill="#001220"/><path d="M0 326L32 331.5C64 337 128 348 192 357.7C256 367.3 320 375.7 384 369.8C448 364 512 344 576 339.7C640 335.3 704 346.7 768 353.8C832 361 896 364 928 365.5L960 367L960 541L928 541C896 541 832 541 768 541C704 541 640 541 576 541C512 541 448 541 384 541C320 541 256 541 192 541C128 541 64 541 32 541L0 541Z" fill="#fa7268"/><path d="M0 388L32 392C64 396 128 404 192 412C256 420 320 428 384 432.2C448 436.3 512 436.7 576 430.8C640 425 704 413 768 405.5C832 398 896 395 928 393.5L960 392L960 541L928 541C896 541 832 541 768 541C704 541 640 541 576 541C512 541 448 541 384 541C320 541 256 541 192 541C128 541 64 541 32 541L0 541Z" fill="#c9524d"/><path d="M0 446L32 447.3C64 448.7 128 451.3 192 456.2C256 461 320 468 384 474C448 480 512 485 576 485.8C640 486.7 704 483.3 768 476.7C832 470 896 460 928 455L960 450L960 541L928 541C896 541 832 541 768 541C704 541 640 541 576 541C512 541 448 541 384 541C320 541 256 541 192 541C128 541 64 541 32 541L0 541Z" fill="#9a3434"/></svg>